<mxfile host="app.diagrams.net" modified="2021-09-14T05:42:34.062Z" agent="5.0 (Windows)" etag="D15JkDtWmcKRM6QA7Fjo" version="14.9.8" type="github" pages="2">
  <diagram id="pRupuPok88TG4E60KmXL" name="Page-1">
    <mxGraphModel dx="1422" dy="780" grid="0" gridSize="10" guides="1" tooltips="1" connect="1" arrows="1" fold="1" page="1" pageScale="1" pageWidth="827" pageHeight="1169" math="0" shadow="0">
      <root>
        <mxCell id="0" />
        <mxCell id="1" parent="0" />
        <mxCell id="2cp1Zb8wMEotowmowjGn-6" value="" style="rounded=0;whiteSpace=wrap;html=1;" parent="1" vertex="1">
          <mxGeometry x="113" y="694" width="511" height="162" as="geometry" />
        </mxCell>
        <mxCell id="2cp1Zb8wMEotowmowjGn-5" value="" style="outlineConnect=0;fontColor=#232F3E;gradientColor=none;fillColor=#232F3E;strokeColor=none;dashed=0;verticalLabelPosition=bottom;verticalAlign=top;align=center;html=1;fontSize=12;fontStyle=0;aspect=fixed;pointerEvents=1;shape=mxgraph.aws4.client;" parent="1" vertex="1">
          <mxGeometry x="381" y="797" width="48" height="46.77" as="geometry" />
        </mxCell>
        <mxCell id="2cp1Zb8wMEotowmowjGn-7" value="&lt;font style=&quot;font-size: 17px&quot;&gt;鄞州区卫健局&lt;/font&gt;" style="rounded=0;whiteSpace=wrap;html=1;" parent="1" vertex="1">
          <mxGeometry x="113" y="508" width="508" height="83" as="geometry" />
        </mxCell>
        <mxCell id="NWvoanEnht_4A9nPqFGr-1" value="" style="rounded=0;orthogonalLoop=1;jettySize=auto;html=1;endArrow=none;endFill=0;" parent="1" edge="1">
          <mxGeometry relative="1" as="geometry">
            <mxPoint x="255" y="413" as="sourcePoint" />
            <mxPoint x="255" y="507" as="targetPoint" />
          </mxGeometry>
        </mxCell>
        <mxCell id="2cp1Zb8wMEotowmowjGn-8" value="" style="rounded=0;whiteSpace=wrap;html=1;" parent="1" vertex="1">
          <mxGeometry x="113" y="251" width="354" height="162" as="geometry" />
        </mxCell>
        <mxCell id="2cp1Zb8wMEotowmowjGn-9" value="" style="rounded=0;whiteSpace=wrap;html=1;" parent="1" vertex="1">
          <mxGeometry x="478" y="251" width="306" height="162" as="geometry" />
        </mxCell>
        <mxCell id="2cp1Zb8wMEotowmowjGn-10" value="" style="outlineConnect=0;fontColor=#232F3E;gradientColor=#4D72F3;gradientDirection=north;fillColor=#3334B9;strokeColor=#ffffff;dashed=0;verticalLabelPosition=bottom;verticalAlign=top;align=center;html=1;fontSize=12;fontStyle=0;aspect=fixed;shape=mxgraph.aws4.resourceIcon;resIcon=mxgraph.aws4.database;" parent="1" vertex="1">
          <mxGeometry x="140" y="326.96" width="53" height="53" as="geometry" />
        </mxCell>
        <mxCell id="2cp1Zb8wMEotowmowjGn-11" value="" style="outlineConnect=0;fontColor=#232F3E;gradientColor=#4D72F3;gradientDirection=north;fillColor=#3334B9;strokeColor=#ffffff;dashed=0;verticalLabelPosition=bottom;verticalAlign=top;align=center;html=1;fontSize=12;fontStyle=0;aspect=fixed;shape=mxgraph.aws4.resourceIcon;resIcon=mxgraph.aws4.database;" parent="1" vertex="1">
          <mxGeometry x="215" y="326.96" width="53" height="53" as="geometry" />
        </mxCell>
        <mxCell id="2cp1Zb8wMEotowmowjGn-12" value="" style="pointerEvents=1;shadow=0;dashed=0;html=1;strokeColor=none;fillColor=#434445;aspect=fixed;labelPosition=center;verticalLabelPosition=bottom;verticalAlign=top;align=center;outlineConnect=0;shape=mxgraph.vvd.vm_group;" parent="1" vertex="1">
          <mxGeometry x="297" y="276" width="49.5" height="50" as="geometry" />
        </mxCell>
        <mxCell id="2cp1Zb8wMEotowmowjGn-13" value="" style="pointerEvents=1;shadow=0;dashed=0;html=1;strokeColor=none;fillColor=#434445;aspect=fixed;labelPosition=center;verticalLabelPosition=bottom;verticalAlign=top;align=center;outlineConnect=0;shape=mxgraph.vvd.datacenter;" parent="1" vertex="1">
          <mxGeometry x="297" y="340" width="54" height="39.96" as="geometry" />
        </mxCell>
        <mxCell id="2cp1Zb8wMEotowmowjGn-14" value="" style="pointerEvents=1;shadow=0;dashed=0;html=1;strokeColor=none;fillColor=#434445;aspect=fixed;labelPosition=center;verticalLabelPosition=bottom;verticalAlign=top;align=center;outlineConnect=0;shape=mxgraph.vvd.datacenter;" parent="1" vertex="1">
          <mxGeometry x="372" y="340" width="54" height="39.96" as="geometry" />
        </mxCell>
        <mxCell id="2cp1Zb8wMEotowmowjGn-15" value="" style="pointerEvents=1;shadow=0;dashed=0;html=1;strokeColor=none;fillColor=#434445;aspect=fixed;labelPosition=center;verticalLabelPosition=bottom;verticalAlign=top;align=center;outlineConnect=0;shape=mxgraph.vvd.vm_group;" parent="1" vertex="1">
          <mxGeometry x="372" y="276" width="49.5" height="50" as="geometry" />
        </mxCell>
        <mxCell id="2cp1Zb8wMEotowmowjGn-16" value="" style="outlineConnect=0;fontColor=#232F3E;gradientColor=#4D72F3;gradientDirection=north;fillColor=#3334B9;strokeColor=#ffffff;dashed=0;verticalLabelPosition=bottom;verticalAlign=top;align=center;html=1;fontSize=12;fontStyle=0;aspect=fixed;shape=mxgraph.aws4.resourceIcon;resIcon=mxgraph.aws4.database;" parent="1" vertex="1">
          <mxGeometry x="520" y="330.02" width="53" height="53" as="geometry" />
        </mxCell>
        <mxCell id="2cp1Zb8wMEotowmowjGn-17" value="" style="pointerEvents=1;shadow=0;dashed=0;html=1;strokeColor=none;fillColor=#434445;aspect=fixed;labelPosition=center;verticalLabelPosition=bottom;verticalAlign=top;align=center;outlineConnect=0;shape=mxgraph.vvd.datacenter;" parent="1" vertex="1">
          <mxGeometry x="615" y="345" width="54" height="39.96" as="geometry" />
        </mxCell>
        <mxCell id="2cp1Zb8wMEotowmowjGn-18" value="" style="pointerEvents=1;shadow=0;dashed=0;html=1;strokeColor=none;fillColor=#434445;aspect=fixed;labelPosition=center;verticalLabelPosition=bottom;verticalAlign=top;align=center;outlineConnect=0;shape=mxgraph.vvd.vm_group;" parent="1" vertex="1">
          <mxGeometry x="615" y="281" width="49.5" height="50" as="geometry" />
        </mxCell>
        <mxCell id="2cp1Zb8wMEotowmowjGn-19" value="" style="pointerEvents=1;shadow=0;dashed=0;html=1;strokeColor=none;fillColor=#434445;aspect=fixed;labelPosition=center;verticalLabelPosition=bottom;verticalAlign=top;align=center;outlineConnect=0;shape=mxgraph.vvd.datacenter;" parent="1" vertex="1">
          <mxGeometry x="689" y="344.02" width="54" height="39.96" as="geometry" />
        </mxCell>
        <mxCell id="2cp1Zb8wMEotowmowjGn-20" value="" style="pointerEvents=1;shadow=0;dashed=0;html=1;strokeColor=none;fillColor=#434445;aspect=fixed;labelPosition=center;verticalLabelPosition=bottom;verticalAlign=top;align=center;outlineConnect=0;shape=mxgraph.vvd.vm_group;" parent="1" vertex="1">
          <mxGeometry x="689" y="280.02" width="49.5" height="50" as="geometry" />
        </mxCell>
        <mxCell id="2cp1Zb8wMEotowmowjGn-24" value="" style="endArrow=none;html=1;" parent="1" edge="1">
          <mxGeometry width="50" height="50" relative="1" as="geometry">
            <mxPoint x="289" y="695" as="sourcePoint" />
            <mxPoint x="289" y="592" as="targetPoint" />
          </mxGeometry>
        </mxCell>
        <mxCell id="2cp1Zb8wMEotowmowjGn-27" value="主机房" style="text;html=1;strokeColor=none;fillColor=none;align=center;verticalAlign=middle;whiteSpace=wrap;rounded=0;fontSize=17;" parent="1" vertex="1">
          <mxGeometry x="146.5" y="274" width="94.5" height="38" as="geometry" />
        </mxCell>
        <mxCell id="2cp1Zb8wMEotowmowjGn-28" value="备机房" style="text;html=1;strokeColor=none;fillColor=none;align=center;verticalAlign=middle;whiteSpace=wrap;rounded=0;fontSize=17;" parent="1" vertex="1">
          <mxGeometry x="497" y="274" width="94.5" height="38" as="geometry" />
        </mxCell>
        <mxCell id="2cp1Zb8wMEotowmowjGn-29" value="卫生院" style="text;html=1;strokeColor=none;fillColor=none;align=center;verticalAlign=middle;whiteSpace=wrap;rounded=0;fontSize=17;" parent="1" vertex="1">
          <mxGeometry x="182" y="761" width="94.5" height="38" as="geometry" />
        </mxCell>
        <mxCell id="2cp1Zb8wMEotowmowjGn-30" value="" style="points=[[0.5,0,0],[1,0.5,0],[0.5,1,0],[0,0.5,0],[0.145,0.145,0],[0.8555,0.145,0],[0.855,0.8555,0],[0.145,0.855,0]];verticalLabelPosition=bottom;html=1;verticalAlign=top;aspect=fixed;align=center;pointerEvents=1;shape=mxgraph.cisco19.rect;prIcon=wireless_router;fillColor=#FAFAFA;strokeColor=#005073;fontSize=17;" parent="1" vertex="1">
          <mxGeometry x="379" y="712" width="50" height="60" as="geometry" />
        </mxCell>
        <mxCell id="2cp1Zb8wMEotowmowjGn-52" value="" style="endArrow=none;html=1;entryX=0.771;entryY=0.99;entryDx=0;entryDy=0;entryPerimeter=0;" parent="1" target="2cp1Zb8wMEotowmowjGn-7" edge="1">
          <mxGeometry width="50" height="50" relative="1" as="geometry">
            <mxPoint x="506" y="696" as="sourcePoint" />
            <mxPoint x="506" y="659.0000000000002" as="targetPoint" />
          </mxGeometry>
        </mxCell>
        <mxCell id="tGrSpAfITiYwp8mFlDJq-1" value="" style="rounded=0;whiteSpace=wrap;html=1;" parent="1" vertex="1">
          <mxGeometry x="113" y="694" width="511" height="162" as="geometry" />
        </mxCell>
        <mxCell id="tGrSpAfITiYwp8mFlDJq-2" value="" style="outlineConnect=0;fontColor=#232F3E;gradientColor=none;fillColor=#232F3E;strokeColor=none;dashed=0;verticalLabelPosition=bottom;verticalAlign=top;align=center;html=1;fontSize=12;fontStyle=0;aspect=fixed;pointerEvents=1;shape=mxgraph.aws4.client;" parent="1" vertex="1">
          <mxGeometry x="381" y="797" width="48" height="46.77" as="geometry" />
        </mxCell>
        <mxCell id="tGrSpAfITiYwp8mFlDJq-3" value="&lt;font style=&quot;font-size: 17px&quot;&gt;鄞州区卫健局&lt;/font&gt;" style="rounded=0;whiteSpace=wrap;html=1;" parent="1" vertex="1">
          <mxGeometry x="113" y="508" width="508" height="83" as="geometry" />
        </mxCell>
        <mxCell id="tGrSpAfITiYwp8mFlDJq-6" value="" style="outlineConnect=0;fontColor=#232F3E;gradientColor=#4D72F3;gradientDirection=north;fillColor=#3334B9;strokeColor=#ffffff;dashed=0;verticalLabelPosition=bottom;verticalAlign=top;align=center;html=1;fontSize=12;fontStyle=0;aspect=fixed;shape=mxgraph.aws4.resourceIcon;resIcon=mxgraph.aws4.database;" parent="1" vertex="1">
          <mxGeometry x="140" y="326.96" width="53" height="53" as="geometry" />
        </mxCell>
        <mxCell id="tGrSpAfITiYwp8mFlDJq-7" value="" style="outlineConnect=0;fontColor=#232F3E;gradientColor=#4D72F3;gradientDirection=north;fillColor=#3334B9;strokeColor=#ffffff;dashed=0;verticalLabelPosition=bottom;verticalAlign=top;align=center;html=1;fontSize=12;fontStyle=0;aspect=fixed;shape=mxgraph.aws4.resourceIcon;resIcon=mxgraph.aws4.database;" parent="1" vertex="1">
          <mxGeometry x="215" y="326.96" width="53" height="53" as="geometry" />
        </mxCell>
        <mxCell id="tGrSpAfITiYwp8mFlDJq-9" value="" style="pointerEvents=1;shadow=0;dashed=0;html=1;strokeColor=none;fillColor=#434445;aspect=fixed;labelPosition=center;verticalLabelPosition=bottom;verticalAlign=top;align=center;outlineConnect=0;shape=mxgraph.vvd.datacenter;" parent="1" vertex="1">
          <mxGeometry x="297" y="340" width="54" height="39.96" as="geometry" />
        </mxCell>
        <mxCell id="tGrSpAfITiYwp8mFlDJq-10" value="" style="pointerEvents=1;shadow=0;dashed=0;html=1;strokeColor=none;fillColor=#434445;aspect=fixed;labelPosition=center;verticalLabelPosition=bottom;verticalAlign=top;align=center;outlineConnect=0;shape=mxgraph.vvd.datacenter;" parent="1" vertex="1">
          <mxGeometry x="372" y="340" width="54" height="39.96" as="geometry" />
        </mxCell>
        <mxCell id="tGrSpAfITiYwp8mFlDJq-11" value="" style="pointerEvents=1;shadow=0;dashed=0;html=1;strokeColor=none;fillColor=#434445;aspect=fixed;labelPosition=center;verticalLabelPosition=bottom;verticalAlign=top;align=center;outlineConnect=0;shape=mxgraph.vvd.vm_group;" parent="1" vertex="1">
          <mxGeometry x="372" y="276" width="49.5" height="50" as="geometry" />
        </mxCell>
        <mxCell id="tGrSpAfITiYwp8mFlDJq-12" value="" style="outlineConnect=0;fontColor=#232F3E;gradientColor=#4D72F3;gradientDirection=north;fillColor=#3334B9;strokeColor=#ffffff;dashed=0;verticalLabelPosition=bottom;verticalAlign=top;align=center;html=1;fontSize=12;fontStyle=0;aspect=fixed;shape=mxgraph.aws4.resourceIcon;resIcon=mxgraph.aws4.database;" parent="1" vertex="1">
          <mxGeometry x="520" y="330.02" width="53" height="53" as="geometry" />
        </mxCell>
        <mxCell id="tGrSpAfITiYwp8mFlDJq-13" value="" style="pointerEvents=1;shadow=0;dashed=0;html=1;strokeColor=none;fillColor=#434445;aspect=fixed;labelPosition=center;verticalLabelPosition=bottom;verticalAlign=top;align=center;outlineConnect=0;shape=mxgraph.vvd.datacenter;" parent="1" vertex="1">
          <mxGeometry x="615" y="345" width="54" height="39.96" as="geometry" />
        </mxCell>
        <mxCell id="tGrSpAfITiYwp8mFlDJq-14" value="" style="pointerEvents=1;shadow=0;dashed=0;html=1;strokeColor=none;fillColor=#434445;aspect=fixed;labelPosition=center;verticalLabelPosition=bottom;verticalAlign=top;align=center;outlineConnect=0;shape=mxgraph.vvd.vm_group;" parent="1" vertex="1">
          <mxGeometry x="615" y="281" width="49.5" height="50" as="geometry" />
        </mxCell>
        <mxCell id="tGrSpAfITiYwp8mFlDJq-15" value="" style="pointerEvents=1;shadow=0;dashed=0;html=1;strokeColor=none;fillColor=#434445;aspect=fixed;labelPosition=center;verticalLabelPosition=bottom;verticalAlign=top;align=center;outlineConnect=0;shape=mxgraph.vvd.datacenter;" parent="1" vertex="1">
          <mxGeometry x="689" y="344.02" width="54" height="39.96" as="geometry" />
        </mxCell>
        <mxCell id="tGrSpAfITiYwp8mFlDJq-16" value="" style="pointerEvents=1;shadow=0;dashed=0;html=1;strokeColor=none;fillColor=#434445;aspect=fixed;labelPosition=center;verticalLabelPosition=bottom;verticalAlign=top;align=center;outlineConnect=0;shape=mxgraph.vvd.vm_group;" parent="1" vertex="1">
          <mxGeometry x="689" y="280.02" width="49.5" height="50" as="geometry" />
        </mxCell>
        <mxCell id="tGrSpAfITiYwp8mFlDJq-17" value="" style="endArrow=none;html=1;" parent="1" edge="1">
          <mxGeometry width="50" height="50" relative="1" as="geometry">
            <mxPoint x="289" y="694.9999999999998" as="sourcePoint" />
            <mxPoint x="289" y="592" as="targetPoint" />
          </mxGeometry>
        </mxCell>
        <mxCell id="tGrSpAfITiYwp8mFlDJq-18" value="主机房" style="text;html=1;strokeColor=none;fillColor=none;align=center;verticalAlign=middle;whiteSpace=wrap;rounded=0;fontSize=17;" parent="1" vertex="1">
          <mxGeometry x="146.5" y="274" width="94.5" height="38" as="geometry" />
        </mxCell>
        <mxCell id="tGrSpAfITiYwp8mFlDJq-19" value="备机房" style="text;html=1;strokeColor=none;fillColor=none;align=center;verticalAlign=middle;whiteSpace=wrap;rounded=0;fontSize=17;" parent="1" vertex="1">
          <mxGeometry x="497" y="274" width="94.5" height="38" as="geometry" />
        </mxCell>
        <mxCell id="tGrSpAfITiYwp8mFlDJq-20" value="卫生院" style="text;html=1;strokeColor=none;fillColor=none;align=center;verticalAlign=middle;whiteSpace=wrap;rounded=0;fontSize=17;" parent="1" vertex="1">
          <mxGeometry x="182" y="761" width="94.5" height="38" as="geometry" />
        </mxCell>
        <mxCell id="tGrSpAfITiYwp8mFlDJq-21" value="" style="points=[[0.5,0,0],[1,0.5,0],[0.5,1,0],[0,0.5,0],[0.145,0.145,0],[0.8555,0.145,0],[0.855,0.8555,0],[0.145,0.855,0]];verticalLabelPosition=bottom;html=1;verticalAlign=top;aspect=fixed;align=center;pointerEvents=1;shape=mxgraph.cisco19.rect;prIcon=wireless_router;fillColor=#FAFAFA;strokeColor=#005073;fontSize=17;" parent="1" vertex="1">
          <mxGeometry x="379" y="712" width="50" height="60" as="geometry" />
        </mxCell>
        <mxCell id="tGrSpAfITiYwp8mFlDJq-24" value="" style="endArrow=none;html=1;entryX=0.771;entryY=0.99;entryDx=0;entryDy=0;entryPerimeter=0;" parent="1" target="tGrSpAfITiYwp8mFlDJq-3" edge="1">
          <mxGeometry width="50" height="50" relative="1" as="geometry">
            <mxPoint x="505.9999999999998" y="696" as="sourcePoint" />
            <mxPoint x="506" y="659.0000000000002" as="targetPoint" />
          </mxGeometry>
        </mxCell>
        <mxCell id="NWvoanEnht_4A9nPqFGr-2" value="" style="rounded=0;orthogonalLoop=1;jettySize=auto;html=1;endArrow=none;endFill=0;" parent="1" edge="1">
          <mxGeometry relative="1" as="geometry">
            <mxPoint x="301" y="413" as="sourcePoint" />
            <mxPoint x="301" y="507" as="targetPoint" />
          </mxGeometry>
        </mxCell>
        <mxCell id="NWvoanEnht_4A9nPqFGr-3" value="" style="rounded=0;orthogonalLoop=1;jettySize=auto;html=1;endArrow=none;endFill=0;" parent="1" edge="1">
          <mxGeometry relative="1" as="geometry">
            <mxPoint x="516" y="413" as="sourcePoint" />
            <mxPoint x="516" y="507" as="targetPoint" />
          </mxGeometry>
        </mxCell>
        <mxCell id="NWvoanEnht_4A9nPqFGr-4" value="" style="rounded=0;orthogonalLoop=1;jettySize=auto;html=1;endArrow=none;endFill=0;" parent="1" edge="1">
          <mxGeometry relative="1" as="geometry">
            <mxPoint x="562" y="413" as="sourcePoint" />
            <mxPoint x="562" y="507" as="targetPoint" />
          </mxGeometry>
        </mxCell>
      </root>
    </mxGraphModel>
  </diagram>
  <diagram id="Zqy1-QBsx4fMR_STZ1pk" name="Page-2">
    <mxGraphModel dx="1422" dy="780" grid="0" gridSize="10" guides="1" tooltips="1" connect="1" arrows="1" fold="1" page="1" pageScale="1" pageWidth="827" pageHeight="1169" math="0" shadow="0">
      <root>
        <mxCell id="eR3DdpY5B8cybmyyleKp-0" />
        <mxCell id="eR3DdpY5B8cybmyyleKp-1" parent="eR3DdpY5B8cybmyyleKp-0" />
        <mxCell id="VVLhHyyg9JutZIcYjlSd-52" style="edgeStyle=orthogonalEdgeStyle;rounded=0;orthogonalLoop=1;jettySize=auto;html=1;entryX=0.906;entryY=0.018;entryDx=0;entryDy=0;entryPerimeter=0;endArrow=none;endFill=0;exitX=0.614;exitY=0.999;exitDx=0;exitDy=0;exitPerimeter=0;" parent="eR3DdpY5B8cybmyyleKp-1" source="VVLhHyyg9JutZIcYjlSd-49" target="VVLhHyyg9JutZIcYjlSd-47" edge="1">
          <mxGeometry relative="1" as="geometry" />
        </mxCell>
        <mxCell id="VVLhHyyg9JutZIcYjlSd-62" value="D" style="edgeLabel;html=1;align=center;verticalAlign=middle;resizable=0;points=[];fontSize=17;" parent="VVLhHyyg9JutZIcYjlSd-52" vertex="1" connectable="0">
          <mxGeometry x="-0.1105" y="1" relative="1" as="geometry">
            <mxPoint y="-1" as="offset" />
          </mxGeometry>
        </mxCell>
        <mxCell id="VVLhHyyg9JutZIcYjlSd-53" style="edgeStyle=orthogonalEdgeStyle;rounded=0;orthogonalLoop=1;jettySize=auto;html=1;endArrow=none;endFill=0;entryX=0.774;entryY=0.001;entryDx=0;entryDy=0;entryPerimeter=0;exitX=0.309;exitY=0.998;exitDx=0;exitDy=0;exitPerimeter=0;" parent="eR3DdpY5B8cybmyyleKp-1" source="VVLhHyyg9JutZIcYjlSd-49" target="VVLhHyyg9JutZIcYjlSd-47" edge="1">
          <mxGeometry relative="1" as="geometry">
            <mxPoint x="583" y="424" as="sourcePoint" />
          </mxGeometry>
        </mxCell>
        <mxCell id="VVLhHyyg9JutZIcYjlSd-61" value="C" style="edgeLabel;html=1;align=center;verticalAlign=middle;resizable=0;points=[];fontSize=17;" parent="VVLhHyyg9JutZIcYjlSd-53" vertex="1" connectable="0">
          <mxGeometry x="-0.0837" relative="1" as="geometry">
            <mxPoint as="offset" />
          </mxGeometry>
        </mxCell>
        <mxCell id="VVLhHyyg9JutZIcYjlSd-49" value="" style="rounded=1;whiteSpace=wrap;html=1;" parent="eR3DdpY5B8cybmyyleKp-1" vertex="1">
          <mxGeometry x="504" y="239" width="255" height="183" as="geometry" />
        </mxCell>
        <mxCell id="VVLhHyyg9JutZIcYjlSd-50" style="edgeStyle=orthogonalEdgeStyle;rounded=0;orthogonalLoop=1;jettySize=auto;html=1;endArrow=none;endFill=0;exitX=0.268;exitY=1.002;exitDx=0;exitDy=0;exitPerimeter=0;" parent="eR3DdpY5B8cybmyyleKp-1" source="VVLhHyyg9JutZIcYjlSd-48" edge="1">
          <mxGeometry relative="1" as="geometry">
            <mxPoint x="208" y="534" as="targetPoint" />
          </mxGeometry>
        </mxCell>
        <mxCell id="VVLhHyyg9JutZIcYjlSd-58" value="A" style="edgeLabel;html=1;align=center;verticalAlign=middle;resizable=0;points=[];fontSize=17;" parent="VVLhHyyg9JutZIcYjlSd-50" vertex="1" connectable="0">
          <mxGeometry x="-0.2745" y="1" relative="1" as="geometry">
            <mxPoint x="-1" y="-3" as="offset" />
          </mxGeometry>
        </mxCell>
        <mxCell id="VVLhHyyg9JutZIcYjlSd-51" style="edgeStyle=orthogonalEdgeStyle;rounded=0;orthogonalLoop=1;jettySize=auto;html=1;entryX=0.332;entryY=-0.003;entryDx=0;entryDy=0;entryPerimeter=0;endArrow=none;endFill=0;exitX=0.636;exitY=1.006;exitDx=0;exitDy=0;exitPerimeter=0;" parent="eR3DdpY5B8cybmyyleKp-1" source="VVLhHyyg9JutZIcYjlSd-48" target="VVLhHyyg9JutZIcYjlSd-47" edge="1">
          <mxGeometry relative="1" as="geometry">
            <mxPoint x="322" y="423" as="sourcePoint" />
          </mxGeometry>
        </mxCell>
        <mxCell id="VVLhHyyg9JutZIcYjlSd-60" value="B" style="edgeLabel;html=1;align=center;verticalAlign=middle;resizable=0;points=[];fontSize=17;" parent="VVLhHyyg9JutZIcYjlSd-51" vertex="1" connectable="0">
          <mxGeometry x="-0.1343" y="1" relative="1" as="geometry">
            <mxPoint y="2" as="offset" />
          </mxGeometry>
        </mxCell>
        <mxCell id="VVLhHyyg9JutZIcYjlSd-56" style="edgeStyle=orthogonalEdgeStyle;rounded=0;orthogonalLoop=1;jettySize=auto;html=1;entryX=0;entryY=0.5;entryDx=0;entryDy=0;endArrow=none;endFill=0;" parent="eR3DdpY5B8cybmyyleKp-1" edge="1">
          <mxGeometry relative="1" as="geometry">
            <mxPoint x="435" y="305.5" as="sourcePoint" />
            <mxPoint x="504" y="305.5" as="targetPoint" />
          </mxGeometry>
        </mxCell>
        <mxCell id="VVLhHyyg9JutZIcYjlSd-57" style="edgeStyle=orthogonalEdgeStyle;rounded=0;orthogonalLoop=1;jettySize=auto;html=1;entryX=0;entryY=0.5;entryDx=0;entryDy=0;endArrow=none;endFill=0;" parent="eR3DdpY5B8cybmyyleKp-1" source="VVLhHyyg9JutZIcYjlSd-48" target="VVLhHyyg9JutZIcYjlSd-49" edge="1">
          <mxGeometry relative="1" as="geometry" />
        </mxCell>
        <mxCell id="VVLhHyyg9JutZIcYjlSd-48" value="" style="rounded=1;whiteSpace=wrap;html=1;" parent="eR3DdpY5B8cybmyyleKp-1" vertex="1">
          <mxGeometry x="126" y="239" width="309" height="183" as="geometry" />
        </mxCell>
        <mxCell id="VVLhHyyg9JutZIcYjlSd-55" style="edgeStyle=orthogonalEdgeStyle;rounded=0;orthogonalLoop=1;jettySize=auto;html=1;entryX=0.599;entryY=0.009;entryDx=0;entryDy=0;entryPerimeter=0;endArrow=none;endFill=0;" parent="eR3DdpY5B8cybmyyleKp-1" source="VVLhHyyg9JutZIcYjlSd-47" target="VVLhHyyg9JutZIcYjlSd-45" edge="1">
          <mxGeometry relative="1" as="geometry" />
        </mxCell>
        <mxCell id="VVLhHyyg9JutZIcYjlSd-47" value="&lt;font style=&quot;font-size: 17px&quot;&gt;鄞州区卫健局&lt;/font&gt;" style="rounded=1;whiteSpace=wrap;html=1;" parent="eR3DdpY5B8cybmyyleKp-1" vertex="1">
          <mxGeometry x="126" y="502" width="590" height="100" as="geometry" />
        </mxCell>
        <mxCell id="VVLhHyyg9JutZIcYjlSd-45" value="" style="rounded=1;whiteSpace=wrap;html=1;" parent="eR3DdpY5B8cybmyyleKp-1" vertex="1">
          <mxGeometry x="126" y="650" width="493" height="141" as="geometry" />
        </mxCell>
        <mxCell id="VVLhHyyg9JutZIcYjlSd-1" value="" style="outlineConnect=0;fontColor=#232F3E;gradientColor=none;fillColor=#232F3E;strokeColor=none;dashed=0;verticalLabelPosition=bottom;verticalAlign=top;align=center;html=1;fontSize=12;fontStyle=0;aspect=fixed;pointerEvents=1;shape=mxgraph.aws4.client;" parent="eR3DdpY5B8cybmyyleKp-1" vertex="1">
          <mxGeometry x="373.5" y="728" width="48" height="46.77" as="geometry" />
        </mxCell>
        <mxCell id="VVLhHyyg9JutZIcYjlSd-6" value="" style="outlineConnect=0;fontColor=#232F3E;gradientColor=#4D72F3;gradientDirection=north;fillColor=#3334B9;strokeColor=#ffffff;dashed=0;verticalLabelPosition=bottom;verticalAlign=top;align=center;html=1;fontSize=12;fontStyle=0;aspect=fixed;shape=mxgraph.aws4.resourceIcon;resIcon=mxgraph.aws4.database;" parent="eR3DdpY5B8cybmyyleKp-1" vertex="1">
          <mxGeometry x="140" y="326.96" width="53" height="53" as="geometry" />
        </mxCell>
        <mxCell id="VVLhHyyg9JutZIcYjlSd-7" value="" style="outlineConnect=0;fontColor=#232F3E;gradientColor=#4D72F3;gradientDirection=north;fillColor=#3334B9;strokeColor=#ffffff;dashed=0;verticalLabelPosition=bottom;verticalAlign=top;align=center;html=1;fontSize=12;fontStyle=0;aspect=fixed;shape=mxgraph.aws4.resourceIcon;resIcon=mxgraph.aws4.database;" parent="eR3DdpY5B8cybmyyleKp-1" vertex="1">
          <mxGeometry x="215" y="326.96" width="53" height="53" as="geometry" />
        </mxCell>
        <mxCell id="VVLhHyyg9JutZIcYjlSd-8" value="" style="pointerEvents=1;shadow=0;dashed=0;html=1;strokeColor=none;fillColor=#434445;aspect=fixed;labelPosition=center;verticalLabelPosition=bottom;verticalAlign=top;align=center;outlineConnect=0;shape=mxgraph.vvd.vm_group;" parent="eR3DdpY5B8cybmyyleKp-1" vertex="1">
          <mxGeometry x="297" y="276" width="49.5" height="50" as="geometry" />
        </mxCell>
        <mxCell id="VVLhHyyg9JutZIcYjlSd-9" value="" style="pointerEvents=1;shadow=0;dashed=0;html=1;strokeColor=none;fillColor=#434445;aspect=fixed;labelPosition=center;verticalLabelPosition=bottom;verticalAlign=top;align=center;outlineConnect=0;shape=mxgraph.vvd.datacenter;" parent="eR3DdpY5B8cybmyyleKp-1" vertex="1">
          <mxGeometry x="297" y="340" width="54" height="39.96" as="geometry" />
        </mxCell>
        <mxCell id="VVLhHyyg9JutZIcYjlSd-10" value="" style="pointerEvents=1;shadow=0;dashed=0;html=1;strokeColor=none;fillColor=#434445;aspect=fixed;labelPosition=center;verticalLabelPosition=bottom;verticalAlign=top;align=center;outlineConnect=0;shape=mxgraph.vvd.datacenter;" parent="eR3DdpY5B8cybmyyleKp-1" vertex="1">
          <mxGeometry x="372" y="340" width="54" height="39.96" as="geometry" />
        </mxCell>
        <mxCell id="VVLhHyyg9JutZIcYjlSd-11" value="" style="pointerEvents=1;shadow=0;dashed=0;html=1;strokeColor=none;fillColor=#434445;aspect=fixed;labelPosition=center;verticalLabelPosition=bottom;verticalAlign=top;align=center;outlineConnect=0;shape=mxgraph.vvd.vm_group;" parent="eR3DdpY5B8cybmyyleKp-1" vertex="1">
          <mxGeometry x="372" y="276" width="49.5" height="50" as="geometry" />
        </mxCell>
        <mxCell id="VVLhHyyg9JutZIcYjlSd-12" value="" style="outlineConnect=0;fontColor=#232F3E;gradientColor=#4D72F3;gradientDirection=north;fillColor=#3334B9;strokeColor=#ffffff;dashed=0;verticalLabelPosition=bottom;verticalAlign=top;align=center;html=1;fontSize=12;fontStyle=0;aspect=fixed;shape=mxgraph.aws4.resourceIcon;resIcon=mxgraph.aws4.database;" parent="eR3DdpY5B8cybmyyleKp-1" vertex="1">
          <mxGeometry x="520" y="330.02" width="53" height="53" as="geometry" />
        </mxCell>
        <mxCell id="VVLhHyyg9JutZIcYjlSd-13" value="" style="pointerEvents=1;shadow=0;dashed=0;html=1;strokeColor=none;fillColor=#434445;aspect=fixed;labelPosition=center;verticalLabelPosition=bottom;verticalAlign=top;align=center;outlineConnect=0;shape=mxgraph.vvd.datacenter;" parent="eR3DdpY5B8cybmyyleKp-1" vertex="1">
          <mxGeometry x="615" y="345" width="54" height="39.96" as="geometry" />
        </mxCell>
        <mxCell id="VVLhHyyg9JutZIcYjlSd-14" value="" style="pointerEvents=1;shadow=0;dashed=0;html=1;strokeColor=none;fillColor=#434445;aspect=fixed;labelPosition=center;verticalLabelPosition=bottom;verticalAlign=top;align=center;outlineConnect=0;shape=mxgraph.vvd.vm_group;" parent="eR3DdpY5B8cybmyyleKp-1" vertex="1">
          <mxGeometry x="615" y="281" width="49.5" height="50" as="geometry" />
        </mxCell>
        <mxCell id="VVLhHyyg9JutZIcYjlSd-15" value="" style="pointerEvents=1;shadow=0;dashed=0;html=1;strokeColor=none;fillColor=#434445;aspect=fixed;labelPosition=center;verticalLabelPosition=bottom;verticalAlign=top;align=center;outlineConnect=0;shape=mxgraph.vvd.datacenter;" parent="eR3DdpY5B8cybmyyleKp-1" vertex="1">
          <mxGeometry x="689" y="344.02" width="54" height="39.96" as="geometry" />
        </mxCell>
        <mxCell id="VVLhHyyg9JutZIcYjlSd-16" value="" style="pointerEvents=1;shadow=0;dashed=0;html=1;strokeColor=none;fillColor=#434445;aspect=fixed;labelPosition=center;verticalLabelPosition=bottom;verticalAlign=top;align=center;outlineConnect=0;shape=mxgraph.vvd.vm_group;" parent="eR3DdpY5B8cybmyyleKp-1" vertex="1">
          <mxGeometry x="689" y="280.02" width="49.5" height="50" as="geometry" />
        </mxCell>
        <mxCell id="VVLhHyyg9JutZIcYjlSd-18" value="主机房" style="text;html=1;strokeColor=none;fillColor=none;align=center;verticalAlign=middle;whiteSpace=wrap;rounded=0;fontSize=17;" parent="eR3DdpY5B8cybmyyleKp-1" vertex="1">
          <mxGeometry x="146.5" y="274" width="94.5" height="38" as="geometry" />
        </mxCell>
        <mxCell id="VVLhHyyg9JutZIcYjlSd-19" value="备机房" style="text;html=1;strokeColor=none;fillColor=none;align=center;verticalAlign=middle;whiteSpace=wrap;rounded=0;fontSize=17;" parent="eR3DdpY5B8cybmyyleKp-1" vertex="1">
          <mxGeometry x="497" y="274" width="94.5" height="38" as="geometry" />
        </mxCell>
        <mxCell id="VVLhHyyg9JutZIcYjlSd-20" value="卫生院" style="text;html=1;strokeColor=none;fillColor=none;align=center;verticalAlign=middle;whiteSpace=wrap;rounded=0;fontSize=17;" parent="eR3DdpY5B8cybmyyleKp-1" vertex="1">
          <mxGeometry x="182" y="655" width="94.5" height="38" as="geometry" />
        </mxCell>
        <mxCell id="VVLhHyyg9JutZIcYjlSd-26" value="" style="outlineConnect=0;fontColor=#232F3E;gradientColor=#4D72F3;gradientDirection=north;fillColor=#3334B9;strokeColor=#ffffff;dashed=0;verticalLabelPosition=bottom;verticalAlign=top;align=center;html=1;fontSize=12;fontStyle=0;aspect=fixed;shape=mxgraph.aws4.resourceIcon;resIcon=mxgraph.aws4.database;" parent="eR3DdpY5B8cybmyyleKp-1" vertex="1">
          <mxGeometry x="140" y="326.96" width="53" height="53" as="geometry" />
        </mxCell>
        <mxCell id="VVLhHyyg9JutZIcYjlSd-27" value="" style="outlineConnect=0;fontColor=#232F3E;gradientColor=#4D72F3;gradientDirection=north;fillColor=#3334B9;strokeColor=#ffffff;dashed=0;verticalLabelPosition=bottom;verticalAlign=top;align=center;html=1;fontSize=12;fontStyle=0;aspect=fixed;shape=mxgraph.aws4.resourceIcon;resIcon=mxgraph.aws4.database;" parent="eR3DdpY5B8cybmyyleKp-1" vertex="1">
          <mxGeometry x="215" y="326.96" width="53" height="53" as="geometry" />
        </mxCell>
        <mxCell id="VVLhHyyg9JutZIcYjlSd-28" value="" style="pointerEvents=1;shadow=0;dashed=0;html=1;strokeColor=none;fillColor=#434445;aspect=fixed;labelPosition=center;verticalLabelPosition=bottom;verticalAlign=top;align=center;outlineConnect=0;shape=mxgraph.vvd.datacenter;" parent="eR3DdpY5B8cybmyyleKp-1" vertex="1">
          <mxGeometry x="297" y="340" width="54" height="39.96" as="geometry" />
        </mxCell>
        <mxCell id="VVLhHyyg9JutZIcYjlSd-29" value="" style="pointerEvents=1;shadow=0;dashed=0;html=1;strokeColor=none;fillColor=#434445;aspect=fixed;labelPosition=center;verticalLabelPosition=bottom;verticalAlign=top;align=center;outlineConnect=0;shape=mxgraph.vvd.datacenter;" parent="eR3DdpY5B8cybmyyleKp-1" vertex="1">
          <mxGeometry x="372" y="340" width="54" height="39.96" as="geometry" />
        </mxCell>
        <mxCell id="VVLhHyyg9JutZIcYjlSd-30" value="" style="pointerEvents=1;shadow=0;dashed=0;html=1;strokeColor=none;fillColor=#434445;aspect=fixed;labelPosition=center;verticalLabelPosition=bottom;verticalAlign=top;align=center;outlineConnect=0;shape=mxgraph.vvd.vm_group;" parent="eR3DdpY5B8cybmyyleKp-1" vertex="1">
          <mxGeometry x="372" y="276" width="49.5" height="50" as="geometry" />
        </mxCell>
        <mxCell id="VVLhHyyg9JutZIcYjlSd-31" value="" style="outlineConnect=0;fontColor=#232F3E;gradientColor=#4D72F3;gradientDirection=north;fillColor=#3334B9;strokeColor=#ffffff;dashed=0;verticalLabelPosition=bottom;verticalAlign=top;align=center;html=1;fontSize=12;fontStyle=0;aspect=fixed;shape=mxgraph.aws4.resourceIcon;resIcon=mxgraph.aws4.database;" parent="eR3DdpY5B8cybmyyleKp-1" vertex="1">
          <mxGeometry x="520" y="330.02" width="53" height="53" as="geometry" />
        </mxCell>
        <mxCell id="VVLhHyyg9JutZIcYjlSd-32" value="" style="pointerEvents=1;shadow=0;dashed=0;html=1;strokeColor=none;fillColor=#434445;aspect=fixed;labelPosition=center;verticalLabelPosition=bottom;verticalAlign=top;align=center;outlineConnect=0;shape=mxgraph.vvd.datacenter;" parent="eR3DdpY5B8cybmyyleKp-1" vertex="1">
          <mxGeometry x="615" y="345" width="54" height="39.96" as="geometry" />
        </mxCell>
        <mxCell id="VVLhHyyg9JutZIcYjlSd-33" value="" style="pointerEvents=1;shadow=0;dashed=0;html=1;strokeColor=none;fillColor=#434445;aspect=fixed;labelPosition=center;verticalLabelPosition=bottom;verticalAlign=top;align=center;outlineConnect=0;shape=mxgraph.vvd.vm_group;" parent="eR3DdpY5B8cybmyyleKp-1" vertex="1">
          <mxGeometry x="615" y="281" width="49.5" height="50" as="geometry" />
        </mxCell>
        <mxCell id="VVLhHyyg9JutZIcYjlSd-34" value="" style="pointerEvents=1;shadow=0;dashed=0;html=1;strokeColor=none;fillColor=#434445;aspect=fixed;labelPosition=center;verticalLabelPosition=bottom;verticalAlign=top;align=center;outlineConnect=0;shape=mxgraph.vvd.datacenter;" parent="eR3DdpY5B8cybmyyleKp-1" vertex="1">
          <mxGeometry x="689" y="344.02" width="54" height="39.96" as="geometry" />
        </mxCell>
        <mxCell id="VVLhHyyg9JutZIcYjlSd-35" value="" style="pointerEvents=1;shadow=0;dashed=0;html=1;strokeColor=none;fillColor=#434445;aspect=fixed;labelPosition=center;verticalLabelPosition=bottom;verticalAlign=top;align=center;outlineConnect=0;shape=mxgraph.vvd.vm_group;" parent="eR3DdpY5B8cybmyyleKp-1" vertex="1">
          <mxGeometry x="689" y="280.02" width="49.5" height="50" as="geometry" />
        </mxCell>
        <mxCell id="VVLhHyyg9JutZIcYjlSd-37" value="主机房" style="text;html=1;strokeColor=none;fillColor=none;align=center;verticalAlign=middle;whiteSpace=wrap;rounded=0;fontSize=17;" parent="eR3DdpY5B8cybmyyleKp-1" vertex="1">
          <mxGeometry x="146.5" y="274" width="94.5" height="38" as="geometry" />
        </mxCell>
        <mxCell id="VVLhHyyg9JutZIcYjlSd-38" value="备机房" style="text;html=1;strokeColor=none;fillColor=none;align=center;verticalAlign=middle;whiteSpace=wrap;rounded=0;fontSize=17;" parent="eR3DdpY5B8cybmyyleKp-1" vertex="1">
          <mxGeometry x="497" y="274" width="94.5" height="38" as="geometry" />
        </mxCell>
        <mxCell id="VVLhHyyg9JutZIcYjlSd-39" value="卫生院" style="text;html=1;strokeColor=none;fillColor=none;align=center;verticalAlign=middle;whiteSpace=wrap;rounded=0;fontSize=17;" parent="eR3DdpY5B8cybmyyleKp-1" vertex="1">
          <mxGeometry x="182" y="655" width="94.5" height="38" as="geometry" />
        </mxCell>
        <mxCell id="VVLhHyyg9JutZIcYjlSd-54" style="edgeStyle=orthogonalEdgeStyle;rounded=0;orthogonalLoop=1;jettySize=auto;html=1;endArrow=none;endFill=0;exitX=0.423;exitY=0.002;exitDx=0;exitDy=0;exitPerimeter=0;entryX=0.354;entryY=0.998;entryDx=0;entryDy=0;entryPerimeter=0;" parent="eR3DdpY5B8cybmyyleKp-1" source="VVLhHyyg9JutZIcYjlSd-45" target="VVLhHyyg9JutZIcYjlSd-47" edge="1">
          <mxGeometry relative="1" as="geometry">
            <mxPoint x="335" y="751" as="sourcePoint" />
            <mxPoint x="335" y="636" as="targetPoint" />
          </mxGeometry>
        </mxCell>
        <mxCell id="VVLhHyyg9JutZIcYjlSd-46" value="" style="points=[[0.5,0,0],[1,0.5,0],[0.5,1,0],[0,0.5,0],[0.145,0.145,0],[0.8555,0.145,0],[0.855,0.8555,0],[0.145,0.855,0]];verticalLabelPosition=bottom;html=1;verticalAlign=top;aspect=fixed;align=center;pointerEvents=1;shape=mxgraph.cisco19.rect;prIcon=router;fillColor=#FAFAFA;strokeColor=#005073;" parent="eR3DdpY5B8cybmyyleKp-1" vertex="1">
          <mxGeometry x="372.5" y="659" width="50" height="50" as="geometry" />
        </mxCell>
        <mxCell id="_F8qLwMiZWI_goK-YAFz-0" value="&lt;font style=&quot;font-size: 22px&quot;&gt;万兆链路&lt;/font&gt;" style="text;html=1;strokeColor=none;fillColor=none;align=center;verticalAlign=middle;whiteSpace=wrap;rounded=0;" vertex="1" parent="eR3DdpY5B8cybmyyleKp-1">
          <mxGeometry x="386" y="439" width="111" height="43" as="geometry" />
        </mxCell>
        <mxCell id="_F8qLwMiZWI_goK-YAFz-1" value="" style="endArrow=classic;html=1;strokeColor=#FF0000;strokeWidth=3;" edge="1" parent="eR3DdpY5B8cybmyyleKp-1">
          <mxGeometry width="50" height="50" relative="1" as="geometry">
            <mxPoint x="381" y="467" as="sourcePoint" />
            <mxPoint x="232" y="485" as="targetPoint" />
          </mxGeometry>
        </mxCell>
        <mxCell id="_F8qLwMiZWI_goK-YAFz-2" value="" style="endArrow=classic;html=1;strokeColor=#FF0000;strokeWidth=3;exitX=0;exitY=0.25;exitDx=0;exitDy=0;" edge="1" parent="eR3DdpY5B8cybmyyleKp-1" source="_F8qLwMiZWI_goK-YAFz-0">
          <mxGeometry width="50" height="50" relative="1" as="geometry">
            <mxPoint x="477" y="422" as="sourcePoint" />
            <mxPoint x="328" y="440" as="targetPoint" />
          </mxGeometry>
        </mxCell>
        <mxCell id="_F8qLwMiZWI_goK-YAFz-3" value="" style="endArrow=classic;html=1;strokeColor=#FF0000;strokeWidth=3;" edge="1" parent="eR3DdpY5B8cybmyyleKp-1">
          <mxGeometry width="50" height="50" relative="1" as="geometry">
            <mxPoint x="445" y="432" as="sourcePoint" />
            <mxPoint x="451" y="339.5" as="targetPoint" />
          </mxGeometry>
        </mxCell>
      </root>
    </mxGraphModel>
  </diagram>
</mxfile>
